<?xml version="1.0" encoding="UTF-8"?>
<svg  preserveAspectRatio="none" fill="none" xmlns="http://www.w3.org/2000/svg" baseProfile="tiny" version="1.2" viewBox="0 0 438.96 153.25">
  <path d="M10.71,47.75c10.76,2.86,25-6.94,35.07-11.36,22.14-9.8,53.21-19.21,76.48-24.36,11.58-2.2,15.53-3.09,6.51,6.35-13.72,14.04-29.81,28.52-44.58,45.82-18.67,22.21-53.84,65.67-65.39,60.41-11.53-5.86,9.88-31.36,38.58-48.02,3.43-1.96,7.38-4,10.7-5.56,14.94-6.87,30.15-12.02,45.99-14.84,4.65-.73,8.62-1.3,13.02-.99,2.39.3,1.64.61-1.4,3.72-22.1,21.57-49.06,46.86-72.47,66.61-7.95,6.38-20.68,17.47-22.95,14.56-.24-.97,2.18-2.93,6.46-5.61,3.9-2.45,9.31-5.5,15.49-8.98,15.5-8.55,34.19-19.5,49.25-30.43,33.67-23.34,83.42-54.57,126.63-75.29,6.37-2.92,9.95-4.15,11.22-4.34-10.09,10.35-99.41,80.47-101.29,110.42-.12,11.98,13.16,7.69,24.26,3.41,9.04-3.62,20.87-9.88,30.08-15.01,9.96-5.56,17.98-10.38,28.3-16.44,10.03-5.5,36.21-22.64,32.81-13.69-1.71,8.23-11.68,24.42-5.37,32.31,2.59,3.18,7.52,4.2,11.67,3.38,15.27-2.74,42.77-22.93,52.93-22.89,5.2-.11,4.14,6.16,3.96,10.12-.17,6.24-1.4,12.57,2.3,17.09,7.41,6.5,26.79-1.57,35.7-3.61,10.06-2.98,19.52-3.51,30.15-1.91,14.28,1.81,29.23,4.97,43.43,5.79" fill="none" stroke="white" stroke-miterlimit="10" stroke-linecap="round" />
</svg>